<svg xmlns="http://www.w3.org/2000/svg" width="19.55" height="17.651" viewBox="0 0 19.55 17.651"><defs><style>.a{fill:#647078;}</style></defs><g transform="translate(0 0)"><g transform="translate(0)"><path class="a" d="M3.46,17.651A1.739,1.739,0,0,1,2.115,17,8.361,8.361,0,0,1,0,11.68C0,9.008.844,7.1,2.582,5.836,4.223,4.645,6.714,4.008,10.2,3.891V1.775A1.74,1.74,0,0,1,11.893,0a1.608,1.608,0,0,1,1.092.433L18.8,5.711a2.344,2.344,0,0,1,0,3.434l-5.817,5.278a1.608,1.608,0,0,1-1.093.434,1.69,1.69,0,0,1-1.175-.49,1.786,1.786,0,0,1-.522-1.286V10.717c-2.477.112-3.883.546-4.558,1.409a3.766,3.766,0,0,0-.353,3.156,1.976,1.976,0,0,1-.393,1.673A1.88,1.88,0,0,1,3.46,17.651ZM11.883,1.763a.012.012,0,0,0-.012.012V4.227a1.4,1.4,0,0,1-1.319,1.415c-6.3.155-8.877,1.9-8.877,6.038a6.633,6.633,0,0,0,1.68,4.14.159.159,0,0,0,.251,0,.206.206,0,0,0,.039-.174c-.41-2.038-.2-3.549.65-4.62,1.027-1.3,3.051-1.978,6.186-2.082h.045a1.384,1.384,0,0,1,1.345,1.416v2.722a.012.012,0,0,0,.012.012l.006,0,5.818-5.278a.524.524,0,0,0,0-.769L11.891,1.766Z"/></g></g></svg>