<svg xmlns="http://www.w3.org/2000/svg" width="24.927" height="28.505" viewBox="0 0 24.927 28.505"><defs><style>.a{fill:#168bdf;}</style></defs><g transform="translate(-0.001)"><path class="a" d="M13.118,11.331v1.433a2.179,2.179,0,0,0,.27,1.135,1.283,1.283,0,0,0,1.115.646,1.914,1.914,0,0,0,1.335-.654l4.734-4.734a2.669,2.669,0,0,0,0-3.77L15.838.654A1.914,1.914,0,0,0,14.5,0c-.689,0-1.385.551-1.385,1.78v1.3A14.061,14.061,0,0,0,.007,15.389a.835.835,0,0,0,1.5.595,11.782,11.782,0,0,1,11.608-4.653Zm-10.7,1.262A12.4,12.4,0,0,1,13.953,4.728a.835.835,0,0,0,.835-.835V1.966l4.6,4.6a1,1,0,0,1,0,1.408l-4.6,4.6V10.652a.835.835,0,0,0-.643-.813A13.417,13.417,0,0,0,2.422,12.593Zm0,0" transform="translate(0)"/><path class="a" d="M85.075,218.826a.835.835,0,0,0-.981.283,11.783,11.783,0,0,1-11.608,4.653v-1.433c0-1.23-.7-1.78-1.385-1.78a1.913,1.913,0,0,0-1.335.654l-4.734,4.733a2.669,2.669,0,0,0,0,3.77l4.734,4.733a1.913,1.913,0,0,0,1.335.654c.689,0,1.385-.551,1.385-1.781v-1.3A14.06,14.06,0,0,0,85.6,219.7.835.835,0,0,0,85.075,218.826ZM71.651,230.365a.835.835,0,0,0-.835.835v1.927l-4.6-4.6a1,1,0,0,1,0-1.408l4.6-4.6v1.927a.835.835,0,0,0,.643.813A13.417,13.417,0,0,0,83.182,222.5,12.4,12.4,0,0,1,71.651,230.365Zm0,0" transform="translate(-60.675 -206.588)"/></g></svg>