<svg xmlns="http://www.w3.org/2000/svg" width="22.326" height="29.809" viewBox="0 0 22.326 29.809"><defs><style>.a{fill:#168bdf;}</style></defs><g transform="translate(-64.266)"><path class="a" d="M83.38,3.742h-.53v-.53A3.215,3.215,0,0,0,79.638,0H71.22a3.215,3.215,0,0,0-3.212,3.212v.53h-.53a3.216,3.216,0,0,0-3.212,3.212V28.936a.873.873,0,0,0,.873.873H85.718a.873.873,0,0,0,.873-.873V6.954A3.215,3.215,0,0,0,83.38,3.742Zm-13.626-.53A1.467,1.467,0,0,1,71.22,1.747h8.419A1.467,1.467,0,0,1,81.1,3.212v.53H69.754ZM76.832,24.2A1.467,1.467,0,0,1,78.3,25.662v2.4h-2V24.2Zm-2.277,3.866h-2v-2.4A1.467,1.467,0,0,1,74.026,24.2h.53Zm10.29,0h-4.8v-2.4a3.215,3.215,0,0,0-3.212-3.212H74.026a3.216,3.216,0,0,0-3.212,3.212v2.4h-4.8V6.954a1.467,1.467,0,0,1,1.465-1.465h15.9a1.467,1.467,0,0,1,1.465,1.465V28.063Z"/><path class="a" d="M145.473,128.529a.873.873,0,1,0,.618.256A.881.881,0,0,0,145.473,128.529Z" transform="translate(-75.657 -121.046)"/><path class="a" d="M209.743,128.529a.874.874,0,1,0,.617.256A.88.88,0,0,0,209.743,128.529Z" transform="translate(-136.185 -121.046)"/><path class="a" d="M145.473,192.8a.873.873,0,1,0,.618.256A.881.881,0,0,0,145.473,192.8Z" transform="translate(-75.657 -181.575)"/><path class="a" d="M209.743,192.8a.873.873,0,1,0,.618.256A.88.88,0,0,0,209.743,192.8Z" transform="translate(-136.185 -181.575)"/><path class="a" d="M145.473,257.069a.873.873,0,1,0,.618.256A.881.881,0,0,0,145.473,257.069Z" transform="translate(-75.657 -242.102)"/><path class="a" d="M209.743,257.069a.873.873,0,1,0,.618.256A.88.88,0,0,0,209.743,257.069Z" transform="translate(-136.185 -242.102)"/><path class="a" d="M145.473,321.33a.874.874,0,1,0,.618.256A.879.879,0,0,0,145.473,321.33Z" transform="translate(-75.657 -302.622)"/><path class="a" d="M209.743,321.33a.875.875,0,1,0,.617.256A.878.878,0,0,0,209.743,321.33Z" transform="translate(-136.185 -302.622)"/><path class="a" d="M274.012,128.529a.873.873,0,1,0,.618.256A.879.879,0,0,0,274.012,128.529Z" transform="translate(-196.712 -121.046)"/><path class="a" d="M338.272,128.529a.873.873,0,1,0,.618.256A.881.881,0,0,0,338.272,128.529Z" transform="translate(-257.231 -121.046)"/><path class="a" d="M274,192.8a.873.873,0,1,0,.618.256A.879.879,0,0,0,274,192.8Z" transform="translate(-196.704 -181.575)"/><path class="a" d="M338.272,192.8a.873.873,0,1,0,.618.256A.881.881,0,0,0,338.272,192.8Z" transform="translate(-257.231 -181.575)"/><path class="a" d="M274.012,257.069a.873.873,0,1,0,.618.256A.88.88,0,0,0,274.012,257.069Z" transform="translate(-196.712 -242.102)"/><path class="a" d="M338.272,257.069a.873.873,0,1,0,.618.256A.881.881,0,0,0,338.272,257.069Z" transform="translate(-257.231 -242.102)"/><path class="a" d="M274,321.33a.874.874,0,1,0,.618.256A.878.878,0,0,0,274,321.33Z" transform="translate(-196.704 -302.622)"/><path class="a" d="M338.272,321.33a.874.874,0,1,0,.618.256A.879.879,0,0,0,338.272,321.33Z" transform="translate(-257.231 -302.622)"/></g></svg>