<svg xmlns="http://www.w3.org/2000/svg" width="30" height="30" viewBox="0 0 30 30"><defs><style>.a{fill:#168bdf;}</style></defs><path class="a" d="M15,0A15,15,0,1,0,30,15,15,15,0,0,0,15,0Zm0,28.125A13.125,13.125,0,1,1,28.125,15,13.125,13.125,0,0,1,15,28.125Z"/><path class="a" d="M138.978,100.64l-1.331,1.331,2.156,2.147h-9.928A1.875,1.875,0,0,0,128,105.993v2.813h1.875v-2.812H139.8l-2.147,2.147,1.322,1.322,3.75-3.75a.937.937,0,0,0,0-1.322Z" transform="translate(-120.5 -94.743)"/><path class="a" d="M141.113,264.269h-9.928l2.147-2.147L132.01,260.8l-3.75,3.75a.937.937,0,0,0,0,1.322l3.75,3.75,1.322-1.322-2.147-2.156h9.928a1.875,1.875,0,0,0,1.875-1.875v-2.812h-1.875Z" transform="translate(-120.488 -245.519)"/></svg>